<svg width="35" height="35" viewBox="0 0 35 35" fill="none" xmlns="http://www.w3.org/2000/svg">
<path d="M17.5 34L32.4068 26.2853C32.9862 25.9847 33.2758 25.8362 33.4867 25.6143C33.6734 25.4197 33.8149 25.1862 33.901 24.9305C34 24.639 34 24.3145 34 23.6618V9.31051M17.5 34L2.59317 26.2853C2.01383 25.9847 1.72417 25.8362 1.51333 25.6143C1.32659 25.4197 1.18512 25.1862 1.099 24.9305C1 24.639 1 24.3127 1 23.6582V9.31051M17.5 34V17.3845M34 9.31051L17.5 17.3845M34 9.31051L18.8383 1.46385C18.3488 1.21085 18.105 1.08251 17.8465 1.03301C17.6176 0.988955 17.3824 0.988955 17.1535 1.03301C16.8968 1.08251 16.6512 1.21085 16.1598 1.46385L1 9.31051M1 9.31051L17.5 17.3845" stroke="#0C0C0D" stroke-width="2" stroke-linecap="round" stroke-linejoin="round"/>
</svg>
