<svg width="25" height="24" viewBox="0 0 25 24" fill="none" xmlns="http://www.w3.org/2000/svg">
<g clip-path="url(#clip0_6_375)">
<path d="M22.5 12.6667C22.4123 12.6672 22.3253 12.6504 22.2441 12.6172C22.1628 12.584 22.089 12.5351 22.0267 12.4733L12.5 2.94L2.97334 12.4733C2.8458 12.5826 2.68175 12.6396 2.51397 12.6331C2.34618 12.6267 2.18702 12.5571 2.06829 12.4384C1.94956 12.3196 1.88001 12.1605 1.87353 11.9927C1.86705 11.8249 1.92412 11.6609 2.03334 11.5333L12.0333 1.53333C12.1582 1.40917 12.3272 1.33947 12.5033 1.33947C12.6795 1.33947 12.8484 1.40917 12.9733 1.53333L22.9733 11.5333C23.0651 11.6269 23.1272 11.7455 23.1519 11.8742C23.1767 12.0029 23.1629 12.136 23.1124 12.2569C23.0619 12.3779 22.9769 12.4812 22.868 12.5541C22.759 12.627 22.6311 12.6661 22.5 12.6667Z" fill="#0C0C0D"/>
<path d="M12.5 5.19333L4.5 13.22V21.3333C4.5 21.687 4.64048 22.0261 4.89052 22.2761C5.14057 22.5262 5.47971 22.6667 5.83333 22.6667H10.5V16H14.5V22.6667H19.1667C19.5203 22.6667 19.8594 22.5262 20.1095 22.2761C20.3595 22.0261 20.5 21.687 20.5 21.3333V13.1733L12.5 5.19333Z" fill="#0C0C0D"/>
</g>
<defs>
<clipPath id="clip0_6_375">
<rect width="24" height="24" fill="white" transform="translate(0.5)"/>
</clipPath>
</defs>
</svg>
