<svg width="100" height="100" viewBox="0 0 100 100" fill="none" xmlns="http://www.w3.org/2000/svg">
<circle cx="50.5" cy="50.5" r="32.5" fill="#121212"/>
<path d="M60.2692 51.7946H51.7946V60.2692C51.7946 60.7187 51.616 61.1498 51.2982 61.4677C50.9803 61.7855 50.5492 61.9641 50.0997 61.9641C49.6502 61.9641 49.2191 61.7855 48.9012 61.4677C48.5834 61.1498 48.4048 60.7187 48.4048 60.2692V51.7946H39.9302C39.4807 51.7946 39.0496 51.616 38.7317 51.2982C38.4139 50.9803 38.2353 50.5492 38.2353 50.0997C38.2353 49.6502 38.4139 49.2191 38.7317 48.9012C39.0496 48.5834 39.4807 48.4048 39.9302 48.4048H48.4048V39.9302C48.4048 39.4807 48.5834 39.0496 48.9012 38.7317C49.2191 38.4139 49.6502 38.2353 50.0997 38.2353C50.5492 38.2353 50.9803 38.4139 51.2982 38.7317C51.616 39.0496 51.7946 39.4807 51.7946 39.9302V48.4048H60.2692C60.7187 48.4048 61.1498 48.5834 61.4677 48.9012C61.7855 49.2191 61.9641 49.6502 61.9641 50.0997C61.9641 50.5492 61.7855 50.9803 61.4677 51.2982C61.1498 51.616 60.7187 51.7946 60.2692 51.7946Z" fill="white"/>
</svg>
